<mxfile host="app.diagrams.net" modified="2023-07-28T09:11:15.906Z" agent="Mozilla/5.0 (Macintosh; Intel Mac OS X 10_15_7) AppleWebKit/537.36 (KHTML, like Gecko) Chrome/115.0.0.0 Safari/537.36" etag="IrC4cqQB8BVvXYoK5RCk" version="21.6.5" type="device">
  <diagram name="Page-1" id="ivC_ssAvXguIzl1cD16i">
    <mxGraphModel dx="550" dy="371" grid="1" gridSize="10" guides="1" tooltips="1" connect="1" arrows="1" fold="1" page="1" pageScale="1" pageWidth="827" pageHeight="1169" math="0" shadow="0">
      <root>
        <mxCell id="0" />
        <mxCell id="1" parent="0" />
        <mxCell id="QomM371ldDaXHihxz6vZ-3" value="&lt;font face=&quot;Computer Modern&quot;&gt;address&lt;/font&gt;" style="rounded=0;whiteSpace=wrap;html=1;" parent="1" vertex="1">
          <mxGeometry x="160" y="40" width="80" height="40" as="geometry" />
        </mxCell>
        <mxCell id="QomM371ldDaXHihxz6vZ-4" value="&lt;font face=&quot;Computer Modern&quot;&gt;&lt;b&gt;(M)apped&lt;/b&gt;&lt;/font&gt;" style="rounded=0;whiteSpace=wrap;html=1;" parent="1" vertex="1">
          <mxGeometry x="100" y="120" width="80" height="40" as="geometry" />
        </mxCell>
        <mxCell id="QomM371ldDaXHihxz6vZ-5" value="&lt;font face=&quot;Computer Modern&quot;&gt;(U)nmapped&lt;/font&gt;" style="rounded=0;whiteSpace=wrap;html=1;" parent="1" vertex="1">
          <mxGeometry x="220" y="120" width="80" height="40" as="geometry" />
        </mxCell>
        <mxCell id="QomM371ldDaXHihxz6vZ-6" value="&lt;font face=&quot;Computer Modern&quot;&gt;&amp;lt; 220 cycles&lt;/font&gt;" style="endArrow=classic;html=1;rounded=0;exitX=0.25;exitY=1;exitDx=0;exitDy=0;entryX=0.5;entryY=0;entryDx=0;entryDy=0;" parent="1" source="QomM371ldDaXHihxz6vZ-3" target="QomM371ldDaXHihxz6vZ-4" edge="1">
          <mxGeometry x="0.0028" width="50" height="50" relative="1" as="geometry">
            <mxPoint x="230" y="190" as="sourcePoint" />
            <mxPoint x="280" y="140" as="targetPoint" />
            <mxPoint as="offset" />
          </mxGeometry>
        </mxCell>
        <mxCell id="QomM371ldDaXHihxz6vZ-7" value="" style="endArrow=classic;html=1;rounded=0;exitX=0.75;exitY=1;exitDx=0;exitDy=0;entryX=0.5;entryY=0;entryDx=0;entryDy=0;" parent="1" source="QomM371ldDaXHihxz6vZ-3" target="QomM371ldDaXHihxz6vZ-5" edge="1">
          <mxGeometry width="50" height="50" relative="1" as="geometry">
            <mxPoint x="190" y="90" as="sourcePoint" />
            <mxPoint x="150" y="130" as="targetPoint" />
          </mxGeometry>
        </mxCell>
        <mxCell id="QomM371ldDaXHihxz6vZ-8" value="&lt;font face=&quot;Computer Modern&quot;&gt;&amp;gt; 235 cycles&lt;/font&gt;" style="edgeLabel;html=1;align=center;verticalAlign=middle;resizable=0;points=[];" parent="QomM371ldDaXHihxz6vZ-7" vertex="1" connectable="0">
          <mxGeometry x="-0.2591" y="1" relative="1" as="geometry">
            <mxPoint x="4" y="6" as="offset" />
          </mxGeometry>
        </mxCell>
        <mxCell id="QomM371ldDaXHihxz6vZ-12" value="&lt;font face=&quot;Computer Modern&quot;&gt;&lt;b&gt;Executable (X)&lt;/b&gt;&lt;/font&gt;" style="rounded=0;whiteSpace=wrap;html=1;fontFamily=Helvetica;fontSize=12;fontColor=default;fillColor=none;gradientColor=none;" parent="1" vertex="1">
          <mxGeometry x="40" y="200" width="80" height="40" as="geometry" />
        </mxCell>
        <mxCell id="QomM371ldDaXHihxz6vZ-13" value="&lt;font face=&quot;Computer Modern&quot;&gt;Non Executable (NX)&lt;br&gt;&lt;/font&gt;" style="rounded=0;whiteSpace=wrap;html=1;fontFamily=Helvetica;fontSize=12;fontColor=default;fillColor=none;gradientColor=none;" parent="1" vertex="1">
          <mxGeometry x="160" y="200" width="80" height="40" as="geometry" />
        </mxCell>
        <mxCell id="QomM371ldDaXHihxz6vZ-14" value="&lt;font face=&quot;Computer Modern&quot;&gt;&amp;lt; 200 cycles&lt;/font&gt;" style="endArrow=classic;html=1;rounded=0;entryX=0.5;entryY=0;entryDx=0;entryDy=0;exitX=0.25;exitY=1;exitDx=0;exitDy=0;" parent="1" source="QomM371ldDaXHihxz6vZ-4" target="QomM371ldDaXHihxz6vZ-12" edge="1">
          <mxGeometry x="0.0028" width="50" height="50" relative="1" as="geometry">
            <mxPoint x="120" y="180" as="sourcePoint" />
            <mxPoint x="80" y="220" as="targetPoint" />
            <mxPoint as="offset" />
          </mxGeometry>
        </mxCell>
        <mxCell id="QomM371ldDaXHihxz6vZ-15" value="" style="endArrow=classic;html=1;rounded=0;entryX=0.5;entryY=0;entryDx=0;entryDy=0;exitX=0.75;exitY=1;exitDx=0;exitDy=0;" parent="1" source="QomM371ldDaXHihxz6vZ-4" target="QomM371ldDaXHihxz6vZ-13" edge="1">
          <mxGeometry width="50" height="50" relative="1" as="geometry">
            <mxPoint x="160" y="180" as="sourcePoint" />
            <mxPoint x="200" y="220" as="targetPoint" />
          </mxGeometry>
        </mxCell>
        <mxCell id="QomM371ldDaXHihxz6vZ-16" value="&lt;font face=&quot;Computer Modern&quot;&gt;&amp;gt; 220 cycles&lt;/font&gt;" style="edgeLabel;html=1;align=center;verticalAlign=middle;resizable=0;points=[];" parent="QomM371ldDaXHihxz6vZ-15" vertex="1" connectable="0">
          <mxGeometry x="-0.2591" y="1" relative="1" as="geometry">
            <mxPoint x="4" y="6" as="offset" />
          </mxGeometry>
        </mxCell>
      </root>
    </mxGraphModel>
  </diagram>
</mxfile>
